:SAMPLES-PER-SECOND 30
:FRAME-RANGE 1-564
:FULLY-SPECIFIED
:DEGREES
124
root  35.2045 39.1752 136.812 173.016 -8.82179 -175.078
RightUpLeg  -2.01979 2.31594 7.25039
RightLeg  2.02892 2.13574 -2.2432
RightFoot  1.9123 -0.515661 4.54786
RightToes  -1.74624e-010 0 -3.6325e-017
Spine  12.1521 -0.552443 10.8603
Spine1  0.785675 1.67795 -1.30011
HEad  17.1785 29.048 -3.47464
LeftShoulder1  3.26465 -4.01857 -37.3036
LeftArm  24.1777 6.81682 -29.7572
LeftForeArm  6.05843 -8.09414 -16.5549
LeftHand  -2.54526 -9.94012 19.458
RightShoulder  4.30593 1.84933 68.3536
RightArm  10.4802 0.336562 -6.49726
RightForeArm  17.7993 -4.25152 15.9048
RightHand  1.31757 21.017 5.23239
LeftUpLeg  10.5935 8.64113 15.301
LeftLeg  41.3088 1.05037 1.3718
LeftFoot  -1.4579 0.49663 -5.64094
LeftToes  -6.43926e-010 8.38805e-011 -3.16407e-011
125
root  35.2651 39.2747 135.777 172.951 -7.00462 -175.512
RightUpLeg  -0.136867 1.79382 7.45501
RightLeg  2.0135 4.37961 -2.14678
RightFoot  0.269752 -0.413247 4.07986
RightToes  -1.74624e-010 0 -3.6325e-017
Spine  12.6486 -0.132706 10.9913
Spine1  0.196354 2.25652 -1.89985
HEad  16.8061 29.3739 -3.32207
LeftShoulder1  3.23496 -3.97055 -37.1888
LeftArm  24.1927 7.2328 -29.9116
LeftForeArm  4.77189 -8.71303 -16.2676
LeftHand  -2.47438 -9.46639 19.5144
RightShoulder  5.36933 3.22655 67.8531
RightArm  9.35896 2.04218 -6.48261
RightForeArm  18.434 -4.0255 15.7547
RightHand  1.1308 20.533 4.51664
LeftUpLeg  6.85979 8.51981 13.4383
LeftLeg  44.0618 -0.346635 0.0382188
LeftFoot  -4.15873 0.395929 -5.90846
LeftToes  -6.43926e-010 8.38805e-011 -3.16407e-011
126
root  35.2975 39.3811 134.761 172.855 -5.33221 -176.065
RightUpLeg  1.79499 0.910632 7.13255
RightLeg  1.93103 6.91351 -1.76517
RightFoot  -1.33405 -0.323554 3.58945
RightToes  -1.74624e-010 0 -3.6325e-017
Spine  12.9381 0.201656 11.0836
Spine1  -0.132259 2.69861 -2.7357
HEad  16.4061 30.1881 -3.20542
LeftShoulder1  3.21239 -3.94018 -37.066
LeftArm  24.6675 7.92571 -30.0402
LeftForeArm  4.07236 -9.74934 -15.7162
LeftHand  -2.55706 -9.7679 19.7573
RightShoulder  6.82093 5.10288 67.463
RightArm  8.2728 3.83223 -6.6134
RightForeArm  17.9583 -3.85607 15.713
RightHand  1.13113 20.0428 4.61882
LeftUpLeg  3.35875 7.8778 11.2676
LeftLeg  44.6064 -0.249546 0.137823
LeftFoot  -5.48958 0.167728 -2.63654
LeftToes  -6.43926e-010 8.38805e-011 -3.16407e-011
127
root  35.3162 39.5295 133.786 172.846 -3.51538 -176.759
RightUpLeg  3.9475 0.711183 6.84613
RightLeg  1.07324 8.90432 -2.08767
RightFoot  -2.40182 -0.276811 3.32983
RightToes  -1.74624e-010 0 -3.6325e-017
Spine  13.598 0.775645 11.0793
Spine1  -1.00666 3.32513 -3.82957
HEad  15.56 30.7474 -3.44517
LeftShoulder1  3.18146 -3.84356 -37.2068
LeftArm  24.192 8.24493 -30.0742
LeftForeArm  4.39393 -9.98393 -15.5224
LeftHand  -2.52685 -9.9068 19.3629
RightShoulder  8.03298 6.78397 66.6296
RightArm  6.5229 5.5149 -6.25647
RightForeArm  18.2246 -3.74429 15.4768
RightHand  1.10626 20.1662 4.48134
LeftUpLeg  -0.165902 7.05735 9.03576
LeftLeg  43.4178 1.82119 2.24182
LeftFoot  -8.28522 0.101443 -1.93817
LeftToes  -6.43926e-010 8.38805e-011 -3.16407e-011
128
root  35.3097 39.6687 132.831 172.807 -1.92458 -177.433
RightUpLeg  6.21878 0.288567 6.27879
RightLeg  -0.1441 10.9274 -2.36678
RightFoot  -3.29591 -0.245905 3.17577
RightToes  -1.74624e-010 0 -3.6325e-017
Spine  14.1319 1.32668 11.126
Spine1  -1.57329 3.94361 -5.00607
HEad  14.2723 31.3475 -3.61503
LeftShoulder1  3.1473 -3.74659 -37.3102
LeftArm  24.263 8.4094 -30.1098
LeftForeArm  4.71134 -10.0937 -15.442
LeftHand  -2.5776 -10.0676 19.5401
RightShoulder  9.24825 8.48549 65.9535
RightArm  5.43075 6.9829 -6.04622
RightForeArm  18.2394 -2.8144 15.2309
RightHand  1.09434 20.3242 4.39628
LeftUpLeg  -3.39272 5.70931 7.08138
LeftLeg  40.4969 3.43481 3.5211
LeftFoot  -9.17463 0.0853833 -1.60275
LeftToes  -6.43926e-010 8.38805e-011 -3.16407e-011
129
root  35.2761 39.772 131.914 172.922 -0.759995 -177.971
RightUpLeg  8.29111 -0.112803 5.6634
RightLeg  -1.50457 12.5412 -2.71296
RightFoot  -4.18886 -0.218575 3.03955
RightToes  -1.74624e-010 0 -3.6325e-017
Spine  14.5821 1.70343 11.2356
Spine1  -2.12234 4.38185 -6.0956
HEad  12.8801 32.3993 -3.79387
LeftShoulder1  3.11195 -3.65879 -37.3465
LeftArm  24.0052 9.2022 -30.0901
LeftForeArm  5.491 -10.6612 -15.0127
LeftHand  -2.68397 -10.3919 19.9146
RightShoulder  10.1852 9.9679 64.8415
RightArm  3.78001 8.67221 -5.00301
RightForeArm  18.6188 -2.18929 14.8349
RightHand  0.962007 20.0667 3.85071
LeftUpLeg  -6.60575 3.69638 5.546
LeftLeg  36.4585 4.82657 4.18477
LeftFoot  -9.90988 0.0799857 -1.6419
LeftToes  -6.43926e-010 8.38805e-011 -3.16407e-011
130
root  35.2233 39.8647 130.982 173.056 0.554153 -178.68
RightUpLeg  10.3231 -0.528323 4.81048
RightLeg  -2.86121 14.313 -3.28211
RightFoot  -5.10905 -0.200656 3.04586
RightToes  -1.74624e-010 0 -3.6325e-017
Spine  14.9172 2.22953 10.9997
Spine1  -2.44172 4.92522 -6.94074
HEad  11.4963 33.8436 -3.81067
LeftShoulder1  3.0919 -3.58858 -37.4879
LeftArm  23.3102 9.72733 -30.0537
LeftForeArm  5.48276 -10.3902 -15.1485
LeftHand  -2.56741 -9.94096 19.6198
RightShoulder  11.1662 11.4758 64.0618
RightArm  3.25706 9.94243 -4.57342
RightForeArm  18.591 -0.671228 14.5449
RightHand  0.896821 20.5268 3.48104
LeftUpLeg  -8.91513 1.81592 4.37408
LeftLeg  30.8502 5.29451 3.75462
LeftFoot  -9.4171 0.0529979 0.213291
LeftToes  -6.43926e-010 8.38805e-011 -3.16407e-011
131
root  35.1564 39.9205 129.992 173.211 1.8929 -179.395
RightUpLeg  12.201 -0.672374 4.0697
RightLeg  -3.86129 15.7612 -4.15798
RightFoot  -6.23854 -0.184045 3.17688
RightToes  -1.74624e-010 0 -3.6325e-017
Spine  14.9441 2.74754 10.6656
Spine1  -2.50842 5.45421 -7.68922
HEad  10.458 35.7104 -3.59412
LeftShoulder1  3.0605 -3.46965 -37.7691
LeftArm  22.0921 10.4274 -29.8507
LeftForeArm  6.43593 -9.69834 -15.4626
LeftHand  -2.55784 -9.92309 19.5713
RightShoulder  12.0825 12.8183 63.6794
RightArm  3.56761 11.101 -4.27576
RightForeArm  16.803 1.51112 14.295
RightHand  1.01756 19.9702 4.11968
LeftUpLeg  -10.2734 0.187778 3.78401
LeftLeg  23.4937 4.91657 2.67199
LeftFoot  -8.10396 0.0539805 -0.186642
LeftToes  -6.43926e-010 8.38805e-011 -3.16407e-011
132
root  35.0648 39.9159 128.946 173.341 3.09605 -179.981
RightUpLeg  13.9038 -0.77376 3.37372
RightLeg  -4.28956 17.1015 -4.92971
RightFoot  -7.68821 -0.151108 3.0992
RightToes  -1.74624e-010 0 -3.6325e-017
Spine  14.9371 3.24467 10.3491
Spine1  -2.57983 5.96728 -8.33382
HEad  9.63835 37.8335 -3.21405
LeftShoulder1  3.04074 -3.42381 -37.7736
LeftArm  21.5627 11.6948 -29.749
LeftForeArm  6.27377 -9.48777 -15.5639
LeftHand  -2.40641 -9.34411 19.1493
RightShoulder  12.7753 13.8261 63.4509
RightArm  3.89236 12.1482 -3.95755
RightForeArm  16.5545 3.23931 13.9354
RightHand  1.02313 20.3002 4.08269
LeftUpLeg  -10.6893 -0.505799 3.45194
LeftLeg  14.6277 3.73066 1.95923
LeftFoot  -4.95568 0.0892659 -1.06591
LeftToes  -6.43926e-010 8.38805e-011 -3.16407e-011
133
root  34.9423 39.8312 127.828 173.416 4.01839 179.813
RightUpLeg  15.5841 -0.81146 3.01136
RightLeg  -4.25351 17.9337 -5.50359
RightFoot  -9.43649 -0.112192 2.89501
RightToes  -1.74624e-010 0 -3.6325e-017
Spine  14.8618 3.50955 10.4657
Spine1  -2.6221 6.29652 -8.88589
HEad  9.33656 39.9683 -2.68566
LeftShoulder1  2.99988 -3.3134 -37.8796
LeftArm  20.2518 13.0085 -29.4585
LeftForeArm  8.45454 -8.80048 -15.7766
LeftHand  -2.57177 -9.85417 19.7589
RightShoulder  13.2258 14.5581 63.0805
RightArm  4.81344 12.7602 -3.1186
RightForeArm  16.532 5.05853 13.4347
RightHand  0.843863 20.8425 3.19887
LeftUpLeg  -10.6393 2.17048 2.95768
LeftLeg  5.59549 -0.557959 2.03885
LeftFoot  -2.88347 0.146243 -1.74334
LeftToes  -6.43926e-010 8.38805e-011 -3.16407e-011
134
root  34.774 39.7037 126.601 173.217 4.68347 179.49
RightUpLeg  17.7193 -1.23778 2.20077
RightLeg  -4.22468 18.8822 -5.93752
RightFoot  -11.2367 -0.0784459 2.46862
RightToes  -1.74624e-010 0 -3.6325e-017
Spine  14.4369 3.74045 10.4692
Spine1  -2.15359 6.57469 -9.28247
HEad  8.91831 41.5817 -2.52264
LeftShoulder1  2.96684 -3.23029 -37.9291
LeftArm  18.8188 14.4655 -29.2392
LeftForeArm  9.73338 -8.05775 -16.0304
LeftHand  -2.55698 -9.67949 19.8677
RightShoulder  13.6164 15.0998 63.0559
RightArm  8.53487 12.831 -2.69076
RightForeArm  12.4907 8.28021 12.7359
RightHand  0.854332 20.7932 3.25215
LeftUpLeg  -9.98027 1.6486 2.77878
LeftLeg  -2.59386 0.104692 2.47895
LeftFoot  -3.03392 0.19675 -2.45821
LeftToes  -6.43926e-010 8.38805e-011 -3.16407e-011
135
root  34.5787 39.5102 125.295 172.852 5.04262 179.2
RightUpLeg  20.0934 -1.59651 1.44837
RightLeg  -3.98501 19.3997 -6.38269
RightFoot  -13.0911 -0.0603376 1.85605
RightToes  -1.74624e-010 0 -3.6325e-017
Spine  14.0957 3.92939 10.418
Spine1  -1.83235 6.77771 -9.56026
HEad  8.46983 42.9462 -2.3403
LeftShoulder1  2.94929 -3.1966 -37.8898
LeftArm  17.6255 15.3787 -29.0677
LeftForeArm  9.73592 -6.53413 -16.712
LeftHand  -2.39095 -9.02133 19.4389
RightShoulder  13.8009 15.3002 63.2077
RightArm  12.9735 12.7272 -2.29565
RightForeArm  8.37361 11.3768 11.647
RightHand  1.05631 21.036 4.0936
LeftUpLeg  -9.44736 0.983536 2.51913
LeftLeg  -8.57026 1.95272 2.76249
LeftFoot  -3.91664 0.184886 -2.48681
LeftToes  -6.43926e-010 8.38805e-011 -3.16407e-011
